<svg xmlns="http://www.w3.org/2000/svg" xmlns:xlink="http://www.w3.org/1999/xlink" width="350" zoomAndPan="magnify" viewBox="0 0 262.5 56.249996" height="75" preserveAspectRatio="xMidYMid meet" version="1.0"><defs><g/></defs><g fill="#ffffff" fill-opacity="1"><g transform="translate(6.82348, 45.024043)"><g><path d="M 6.71875 -36.015625 L 6.71875 -21.953125 L 6.8125 -21.953125 C 7.976562 -23.609375 9.46875 -24.914062 11.28125 -25.875 C 13.101562 -26.832031 15.070312 -27.3125 17.1875 -27.3125 C 19.75 -27.3125 22.125 -26.703125 24.3125 -25.484375 C 26.5 -24.265625 28.238281 -22.59375 29.53125 -20.46875 C 30.832031 -18.34375 31.484375 -15.984375 31.484375 -13.390625 C 31.484375 -10.785156 30.847656 -8.410156 29.578125 -6.265625 C 28.316406 -4.128906 26.597656 -2.445312 24.421875 -1.21875 C 22.253906 0.0078125 19.84375 0.625 17.1875 0.625 C 15.070312 0.625 13.101562 0.171875 11.28125 -0.734375 C 9.46875 -1.640625 7.976562 -2.953125 6.8125 -4.671875 L 6.71875 -4.671875 L 6.71875 0 L 3.3125 0 L 3.3125 -36.015625 Z M 17.125 -24.234375 C 15.21875 -24.234375 13.453125 -23.738281 11.828125 -22.75 C 10.203125 -21.757812 8.910156 -20.425781 7.953125 -18.75 C 6.992188 -17.082031 6.515625 -15.257812 6.515625 -13.28125 C 6.515625 -11.332031 6.984375 -9.523438 7.921875 -7.859375 C 8.867188 -6.191406 10.160156 -4.867188 11.796875 -3.890625 C 13.441406 -2.921875 15.238281 -2.4375 17.1875 -2.4375 C 19.257812 -2.4375 21.125 -2.914062 22.78125 -3.875 C 24.4375 -4.832031 25.734375 -6.128906 26.671875 -7.765625 C 27.609375 -9.398438 28.078125 -11.222656 28.078125 -13.234375 C 28.078125 -15.316406 27.609375 -17.191406 26.671875 -18.859375 C 25.734375 -20.523438 24.425781 -21.835938 22.75 -22.796875 C 21.082031 -23.753906 19.207031 -24.234375 17.125 -24.234375 Z M 17.125 -24.234375 "/></g></g></g><g fill="#ffffff" fill-opacity="1"><g transform="translate(39.036386, 45.024043)"><g><path d="M 15.671875 -2.4375 C 17.785156 -2.4375 19.722656 -3.003906 21.484375 -4.140625 C 23.253906 -5.273438 24.5 -6.800781 25.21875 -8.71875 L 28.8125 -8.71875 C 27.8125 -5.894531 26.097656 -3.628906 23.671875 -1.921875 C 21.253906 -0.222656 18.601562 0.625 15.71875 0.625 C 13.21875 0.625 10.90625 0.0078125 8.78125 -1.21875 C 6.65625 -2.445312 4.96875 -4.128906 3.71875 -6.265625 C 2.46875 -8.410156 1.84375 -10.75 1.84375 -13.28125 C 1.84375 -15.8125 2.472656 -18.148438 3.734375 -20.296875 C 5.003906 -22.441406 6.703125 -24.144531 8.828125 -25.40625 C 10.953125 -26.675781 13.234375 -27.3125 15.671875 -27.3125 C 18.265625 -27.3125 20.625 -26.644531 22.75 -25.3125 C 24.875 -23.976562 26.550781 -22.21875 27.78125 -20.03125 C 29.019531 -17.84375 29.640625 -15.53125 29.640625 -13.09375 L 29.59375 -12.078125 L 5.359375 -12.078125 C 5.453125 -10.347656 5.992188 -8.742188 6.984375 -7.265625 C 7.972656 -5.796875 9.242188 -4.625 10.796875 -3.75 C 12.359375 -2.875 13.984375 -2.4375 15.671875 -2.4375 Z M 15.671875 -24.234375 C 14.015625 -24.234375 12.457031 -23.851562 11 -23.09375 C 9.539062 -22.332031 8.304688 -21.257812 7.296875 -19.875 C 6.296875 -18.5 5.648438 -16.921875 5.359375 -15.140625 L 26.140625 -15.140625 C 25.648438 -17.828125 24.4375 -20.015625 22.5 -21.703125 C 20.570312 -23.390625 18.296875 -24.234375 15.671875 -24.234375 Z M 15.671875 -24.234375 "/></g></g></g><g fill="#ffffff" fill-opacity="1"><g transform="translate(69.692146, 45.024043)"><g><path d="M 26.71875 -4.671875 C 25.613281 -3.015625 24.148438 -1.71875 22.328125 -0.78125 C 20.515625 0.15625 18.523438 0.625 16.359375 0.625 C 13.722656 0.625 11.3125 0.0078125 9.125 -1.21875 C 6.9375 -2.445312 5.207031 -4.125 3.9375 -6.25 C 2.675781 -8.375 2.046875 -10.753906 2.046875 -13.390625 C 2.046875 -15.984375 2.691406 -18.34375 3.984375 -20.46875 C 5.285156 -22.59375 7.03125 -24.265625 9.21875 -25.484375 C 11.414062 -26.703125 13.796875 -27.3125 16.359375 -27.3125 C 18.554688 -27.3125 20.5625 -26.835938 22.375 -25.890625 C 24.195312 -24.953125 25.644531 -23.640625 26.71875 -21.953125 L 26.8125 -21.953125 L 26.8125 -26.625 L 30.21875 -26.625 L 30.21875 0 L 26.8125 0 L 26.8125 -4.671875 Z M 27.015625 -13.28125 C 27.015625 -15.226562 26.539062 -17.046875 25.59375 -18.734375 C 24.65625 -20.421875 23.367188 -21.757812 21.734375 -22.75 C 20.097656 -23.738281 18.289062 -24.234375 16.3125 -24.234375 C 14.289062 -24.234375 12.453125 -23.753906 10.796875 -22.796875 C 9.148438 -21.835938 7.847656 -20.523438 6.890625 -18.859375 C 5.929688 -17.191406 5.453125 -15.316406 5.453125 -13.234375 C 5.453125 -11.222656 5.921875 -9.390625 6.859375 -7.734375 C 7.804688 -6.078125 9.113281 -4.78125 10.78125 -3.84375 C 12.445312 -2.90625 14.304688 -2.4375 16.359375 -2.4375 C 18.304688 -2.4375 20.085938 -2.921875 21.703125 -3.890625 C 23.328125 -4.867188 24.617188 -6.179688 25.578125 -7.828125 C 26.535156 -9.484375 27.015625 -11.300781 27.015625 -13.28125 Z M 27.015625 -13.28125 "/></g></g></g><g fill="#ffffff" fill-opacity="1"><g transform="translate(101.953709, 45.024043)"><g><path d="M 14.890625 -24.234375 C 12.359375 -24.234375 10.335938 -23.375 8.828125 -21.65625 C 7.328125 -19.9375 6.578125 -17.75 6.578125 -15.09375 L 6.578125 0 L 3.15625 0 L 3.15625 -26.625 L 6.578125 -26.625 L 6.578125 -23.21875 L 6.671875 -23.21875 C 7.515625 -24.507812 8.65625 -25.515625 10.09375 -26.234375 C 11.539062 -26.953125 13.125 -27.3125 14.84375 -27.3125 C 17.25 -27.3125 19.332031 -26.789062 21.09375 -25.75 C 22.863281 -24.707031 24.21875 -23.242188 25.15625 -21.359375 C 26.101562 -19.484375 26.578125 -17.3125 26.578125 -14.84375 L 26.578125 0 L 23.171875 0 L 23.171875 -14.84375 C 23.171875 -16.789062 22.8125 -18.46875 22.09375 -19.875 C 21.382812 -21.289062 20.394531 -22.367188 19.125 -23.109375 C 17.863281 -23.859375 16.453125 -24.234375 14.890625 -24.234375 Z M 14.890625 -24.234375 "/></g></g></g><g fill="#ffffff" fill-opacity="1"><g transform="translate(130.669835, 45.024043)"><g><path d="M 0.53125 -20.875 L 0.53125 -27.015625 L 4.53125 -27.015625 L 4.53125 -36.015625 L 12.609375 -36.015625 L 12.609375 -27.015625 L 16.5 -27.015625 L 16.5 -20.875 L 12.609375 -20.875 L 12.609375 0 L 4.53125 0 L 4.53125 -20.875 Z M 0.53125 -20.875 "/></g></g></g><g fill="#ffffff" fill-opacity="1"><g transform="translate(146.776027, 45.024043)"><g><path d="M 15.53125 -20.34375 C 12.507812 -20.34375 11 -18.625 11 -15.1875 L 11 0 L 2.921875 0 L 2.921875 -36.015625 L 11 -36.015625 L 11 -24.4375 C 11.582031 -25.539062 12.5 -26.398438 13.75 -27.015625 C 15 -27.628906 16.421875 -27.9375 18.015625 -27.9375 C 21.128906 -27.9375 23.5625 -26.988281 25.3125 -25.09375 C 27.0625 -23.195312 27.9375 -20.492188 27.9375 -16.984375 L 27.9375 0 L 19.859375 0 L 19.859375 -14.84375 C 19.859375 -18.507812 18.414062 -20.34375 15.53125 -20.34375 Z M 15.53125 -20.34375 "/></g></g></g><g fill="#ffffff" fill-opacity="1"><g transform="translate(176.555898, 45.024043)"><g><path d="M 15.765625 -5.9375 C 16.835938 -5.9375 17.753906 -6.140625 18.515625 -6.546875 C 19.273438 -6.953125 20 -7.59375 20.6875 -8.46875 L 28.953125 -8.46875 C 27.660156 -5.519531 25.851562 -3.222656 23.53125 -1.578125 C 21.207031 0.0546875 18.617188 0.875 15.765625 0.875 C 13.203125 0.875 10.828125 0.242188 8.640625 -1.015625 C 6.453125 -2.285156 4.707031 -4.015625 3.40625 -6.203125 C 2.101562 -8.390625 1.453125 -10.800781 1.453125 -13.4375 C 1.453125 -16 2.082031 -18.390625 3.34375 -20.609375 C 4.613281 -22.835938 6.328125 -24.613281 8.484375 -25.9375 C 10.648438 -27.269531 13.03125 -27.9375 15.625 -27.9375 C 18.28125 -27.9375 20.695312 -27.285156 22.875 -25.984375 C 25.050781 -24.691406 26.765625 -22.925781 28.015625 -20.6875 C 29.265625 -18.445312 29.890625 -15.945312 29.890625 -13.1875 C 29.890625 -12.40625 29.820312 -11.691406 29.6875 -11.046875 L 9.4375 -11.046875 C 9.664062 -9.523438 10.363281 -8.289062 11.53125 -7.34375 C 12.695312 -6.40625 14.109375 -5.9375 15.765625 -5.9375 Z M 15.625 -21.125 C 14.132812 -21.125 12.828125 -20.707031 11.703125 -19.875 C 10.585938 -19.050781 9.867188 -17.925781 9.546875 -16.5 L 21.8125 -16.5 C 21.476562 -17.894531 20.75 -19.015625 19.625 -19.859375 C 18.507812 -20.703125 17.175781 -21.125 15.625 -21.125 Z M 15.625 -21.125 "/></g></g></g><g fill="#ffffff" fill-opacity="1"><g transform="translate(207.017008, 45.024043)"><g><path d="M 10.46875 -27.015625 L 10.46875 -24.140625 L 10.5625 -24.140625 C 11.238281 -25.535156 12.128906 -26.515625 13.234375 -27.078125 C 14.335938 -27.648438 15.703125 -27.9375 17.328125 -27.9375 L 17.328125 -19.8125 C 15.023438 -19.78125 13.382812 -19.359375 12.40625 -18.546875 C 11.4375 -17.734375 10.953125 -16.515625 10.953125 -14.890625 L 10.953125 0 L 2.875 0 L 2.875 -27.015625 Z M 10.46875 -27.015625 "/></g></g></g><g fill="#ffffff" fill-opacity="1"><g transform="translate(223.707112, 45.024043)"><g><path d="M 15.765625 -5.9375 C 16.835938 -5.9375 17.753906 -6.140625 18.515625 -6.546875 C 19.273438 -6.953125 20 -7.59375 20.6875 -8.46875 L 28.953125 -8.46875 C 27.660156 -5.519531 25.851562 -3.222656 23.53125 -1.578125 C 21.207031 0.0546875 18.617188 0.875 15.765625 0.875 C 13.203125 0.875 10.828125 0.242188 8.640625 -1.015625 C 6.453125 -2.285156 4.707031 -4.015625 3.40625 -6.203125 C 2.101562 -8.390625 1.453125 -10.800781 1.453125 -13.4375 C 1.453125 -16 2.082031 -18.390625 3.34375 -20.609375 C 4.613281 -22.835938 6.328125 -24.613281 8.484375 -25.9375 C 10.648438 -27.269531 13.03125 -27.9375 15.625 -27.9375 C 18.28125 -27.9375 20.695312 -27.285156 22.875 -25.984375 C 25.050781 -24.691406 26.765625 -22.925781 28.015625 -20.6875 C 29.265625 -18.445312 29.890625 -15.945312 29.890625 -13.1875 C 29.890625 -12.40625 29.820312 -11.691406 29.6875 -11.046875 L 9.4375 -11.046875 C 9.664062 -9.523438 10.363281 -8.289062 11.53125 -7.34375 C 12.695312 -6.40625 14.109375 -5.9375 15.765625 -5.9375 Z M 15.625 -21.125 C 14.132812 -21.125 12.828125 -20.707031 11.703125 -19.875 C 10.585938 -19.050781 9.867188 -17.925781 9.546875 -16.5 L 21.8125 -16.5 C 21.476562 -17.894531 20.75 -19.015625 19.625 -19.859375 C 18.507812 -20.703125 17.175781 -21.125 15.625 -21.125 Z M 15.625 -21.125 "/></g></g></g></svg>